<svg id="Layer_1" data-name="Layer 1" xmlns="http://www.w3.org/2000/svg" viewBox="0 0 62.51 62.51"><defs><style>.cls-1{fill:#686868;}</style></defs><title>icon4</title><g id="happy-face"><path class="cls-1" d="M329.27,406.43a31.26,31.26,0,1,0,31.25,31.26A31.25,31.25,0,0,0,329.27,406.43Zm-19.86,37.64a1.36,1.36,0,0,1,.41-.28,1,1,0,0,1,.35-.16,1.24,1.24,0,0,1,1.19.15l.53.53c8.79,6.28,20.94,9.63,34.49.21.08-.06.18-.18.27-.21s.13-.13.22-.22a1.68,1.68,0,0,1,2.35,0s0,0,0,0a1.6,1.6,0,0,1,.48,1.15.77.77,0,0,1,0,.3,1.39,1.39,0,0,1-.36.87h0l-.2.14-.56.38c-16.38,11.51-30.41,5.95-39.25-.65h0a2,2,0,0,1-.39-1.12A1.54,1.54,0,0,1,309.41,444.07Zm29.89-19.18h3.63c1.89,0,3.42,2.55,3.42,5.82s-1.53,5.82-3.42,5.82H339.3c-1.88,0-3.41-2.55-3.41-5.82S337.42,424.89,339.3,424.89Zm-23.39,0h3.71c2.05,0,3.72,2.55,3.72,5.82s-1.67,5.82-3.72,5.82h-3.71c-2.06,0-3.73-2.55-3.73-5.82S313.85,424.89,315.91,424.89Z" transform="translate(-298.01 -406.43)"/></g></svg>