<svg id="Layer_1" data-name="Layer 1" xmlns="http://www.w3.org/2000/svg" viewBox="0 0 81.88 57.82"><defs><style>.cls-1{fill:#fff;}</style></defs><title>logo</title><path class="cls-1" d="M273.9,405.1a54.28,54.28,0,0,0,.56-19.75,53.26,53.26,0,0,0-19.66,14.56c-.26.32-.51.65-.76,1,.25-.32.5-.65.76-1a54.33,54.33,0,0,0-8.31-15.21A54.28,54.28,0,0,0,238.17,400a53.36,53.36,0,0,0-19.64-14.57,54.31,54.31,0,0,0,.53,19.69,53.38,53.38,0,0,0-13.51-3.51s1.53,16.77,12.82,28.06,28.06,12.82,28.06,12.82v0l.06.08.06-.08v0s16.77-1.53,28.06-12.82,12.82-28.06,12.82-28.06A53.31,53.31,0,0,0,273.9,405.1ZM272,389.91a50.73,50.73,0,0,1-1.57,16.76h0a41.26,41.26,0,0,0-11,7.73c-.8.8-1.55,1.63-2.26,2.48.1-1.07.16-2.16.16-3.27a39.55,39.55,0,0,0-1.38-10.15h0C260.86,396.59,267.78,392.14,272,389.91Zm-50.9,0c4.16,2.23,11.06,6.66,16,13.56a39.53,39.53,0,0,0-1.36,10.09q0,1.67.15,3.27c-.71-.85-1.46-1.68-2.26-2.48a41,41,0,0,0-11-7.74A50.7,50.7,0,0,1,221.05,390ZM240,438.09c-5.53-1.5-13.39-4.55-19.44-10.59-7.15-7.16-10.12-16.88-11.27-22.24a53.66,53.66,0,0,1,10.81,3.56,43.35,43.35,0,0,1,3.94,2,34.93,34.93,0,0,1,13.19,13.2c.38,1.41.82,2.77,1.3,4.06.66,1.79,1.4,3.46,2.14,5l.37.73-23.29-20Zm8.3-2.28-1.93-31.28-1.89,30.73c-2.29-4.26-5.68-12.05-5.68-21h0c0-.23,0-.45,0-.68a34.83,34.83,0,0,1,.63-6.45,41.35,41.35,0,0,1,1-4.19,48.56,48.56,0,0,1,3.06-7.68,42.5,42.5,0,0,1,3.05-5.38,41.4,41.4,0,0,1,3,5.32,49.14,49.14,0,0,1,3.06,7.68l.54-.77-.54.77a38.66,38.66,0,0,1,1,4.18,1.74,1.74,0,0,1,.1-.19c.33-.6.68-1.19,1.05-1.76-.37.57-.72,1.16-1.05,1.76a1.74,1.74,0,0,0-.1.19,34.65,34.65,0,0,1,.64,6.52c0,.22,0,.45,0,.68h0c0,8.68-3.21,16.3-5.5,20.62.81-.39,1.81-.9,2.93-1.53.36-1.09.78-2.24,1.26-3.42-.48,1.18-.89,2.32-1.24,3.42-1.14.64-2.15,1.16-3,1.56Zm5.18-7.07v0c-.75.49-1.46.93-2.15,1.34C252,429.69,252.69,429.24,253.43,428.74Zm19-1.24c-5.75,5.75-13.16,8.79-18.63,10.36l21.69-24.13-23.88,20.76c.26-.49.52-1,.78-1.54.74-1.52,1.46-3.19,2.12-5,.46-1.26.89-2.58,1.26-4a36.8,36.8,0,0,1,5.7-7.48,36.39,36.39,0,0,1,7.43-5.66c.48-1.17.88-2.34,1.23-3.51a34.92,34.92,0,0,1-1.23,3.51,42.57,42.57,0,0,1,4-2c.33-1,.6-2.09.85-3.12-.25,1-.52,2.07-.85,3.12a52.75,52.75,0,0,1,10.86-3.58C282.61,410.61,279.66,420.31,272.47,427.5Z" transform="translate(-205.55 -384.7)"/></svg>