<svg id="Layer_1" data-name="Layer 1" xmlns="http://www.w3.org/2000/svg" viewBox="0 0 61.38 65.87"><defs><style>.cls-1{fill:#686868;}</style></defs><title>icon5</title><g id="talk-bubble-tirh-text"><path class="cls-1" d="M269.11,439.82a30.68,30.68,0,1,0-16.09,27c4.85,2.79,14,8.18,14,8.18l-3.62-17.31A30.48,30.48,0,0,0,269.11,439.82Zm-15.71,12.7H224.25a2.81,2.81,0,0,1,0-5.62H253.4a2.81,2.81,0,0,1,0,5.62Zm0-10.23H224.25a2.81,2.81,0,0,1,0-5.62H253.4a2.81,2.81,0,0,1,0,5.62Zm0-10.23H224.25a2.81,2.81,0,0,1,0-5.62H253.4a2.81,2.81,0,0,1,0,5.62Z" transform="translate(-207.73 -409.13)"/></g></svg>