<svg id="Layer_1" data-name="Layer 1" xmlns="http://www.w3.org/2000/svg" viewBox="0 0 54.27 62.13"><defs><style>.cls-1{fill:#686868;}</style></defs><title>icon1</title><g id="text"><polygon class="cls-1" points="52.54 54.01 52.53 54.01 46.1 54.01 46.1 60.4 46.1 60.45 46.2 60.45 52.54 54.1 52.54 54.01"/><path class="cls-1" d="M211.71,410.36H166.84a4.93,4.93,0,0,0-4.72,4.56v1.75h-.05V423h3.26a4,4,0,1,1-.11,3h-3.15v7.62h3.29a4,4,0,1,1-.15,3h-3.14v8h3.16a4,4,0,1,1,.09,3h-3.25v7.48h3.23a4.05,4.05,0,1,1-.05,3h-3.18v9.32h.05v1.34c0,2.36,2.36,3.93,4.72,3.93h38.28l.09-11.36h11.13V414.92A4.84,4.84,0,0,0,211.71,410.36Zm-2.9,43.58H177.42a1.55,1.55,0,1,1,0-3.1h31.39a1.55,1.55,0,1,1,0,3.1Zm0-6.92H177.42a1.55,1.55,0,1,1,0-3.1h31.39a1.55,1.55,0,1,1,0,3.1Zm0-6.77H177.42a1.56,1.56,0,1,1,0-3.11h31.39a1.56,1.56,0,0,1,0,3.11Zm0-6.78H177.42a1.56,1.56,0,1,1,0-3.11h31.39a1.56,1.56,0,0,1,0,3.11Zm0-6.64H177.42a1.55,1.55,0,1,1,0-3.1h31.39a1.55,1.55,0,1,1,0,3.1Z" transform="translate(-162.07 -410.36)"/><path class="cls-1" d="M171,424.58a2,2,0,1,0-2,2A2,2,0,0,0,171,424.58Zm-3-.05a1.06,1.06,0,0,1,2.12,0,1.06,1.06,0,0,1-2.12,0Z" transform="translate(-162.07 -410.36)"/><path class="cls-1" d="M171,435.17a2,2,0,1,0-2,2A2,2,0,0,0,171,435.17Zm-3,0a1.06,1.06,0,1,1,1.06,1.06A1.06,1.06,0,0,1,168,435.21Z" transform="translate(-162.07 -410.36)"/><path class="cls-1" d="M171,445.9a2,2,0,1,0-2,2A2,2,0,0,0,171,445.9Zm-3,0a1.06,1.06,0,0,1,2.12,0,1.06,1.06,0,0,1-2.12,0Z" transform="translate(-162.07 -410.36)"/><path class="cls-1" d="M171,456.49a2,2,0,1,0-2,2A2,2,0,0,0,171,456.49Zm-3-.1a1.06,1.06,0,1,1,1.06,1.06A1.06,1.06,0,0,1,168,456.39Z" transform="translate(-162.07 -410.36)"/></g></svg>