<svg id="Layer_1" data-name="Layer 1" xmlns="http://www.w3.org/2000/svg" viewBox="0 0 60.49 60.47"><defs><style>.cls-1{fill:#686868;}</style></defs><title>icon6</title><g id="airplane"><path class="cls-1" d="M348.48,464.93l-8.83-16.2a1.19,1.19,0,0,0-.12-.22l-10-18.42,2.28-2.16c.65-.54,1.29-1.13,1.93-1.77,4.16-4.17,6.37-8.68,4.95-10.1s-5.7.67-9.87,4.75h0l0,0-.2.2c-.7.7-1.34,1.41-1.92,2.11l-2,2.18-18.22-9.94a.94.94,0,0,0-.22-.12L290,406.44s-.56-.13-1.41.72-.85,1.11.56,2.59c.6.63,5.74,5.26,11.46,10.39l-1.33,1.33a.84.84,0,0,0,.09,1.18l0,0a.84.84,0,0,0,1.18.1l1.41-1.41,4.12,3.69-1.62,1.62a.84.84,0,0,0,.09,1.18l0,0a.84.84,0,0,0,1.18.1l1.7-1.7,4.13,3.69-1.92,1.91a.84.84,0,0,0,.09,1.18l0,0a.84.84,0,0,0,1.18.1l2-2,3.42,3.05L304,447.75l0,0-.06.09-10-5.6a1.14,1.14,0,0,0-1.05.36c-.55.5-1,1.12.23,2.66,1,1.17,4.7,5.78,6.41,7.88h0s-1.81,2.93-1.83,4.68c0,0,1.7-.11,4.28-2.14l8.46,6.88c1.53,1.25,2.15.78,2.65.23a1.17,1.17,0,0,0,.37-1l-6-10.67.1-.09,0,0,13.14-12.46,3,3.36-2,2a1,1,0,0,0,.19,1.28l0,0a.72.72,0,0,0,1.09,0l1.92-1.92,3.69,4.13-1.7,1.69a1,1,0,0,0,.19,1.28l0,0a.72.72,0,0,0,1.09,0l1.63-1.63,3.69,4.13-1.41,1.41a1,1,0,0,0,.19,1.27l0,0a.72.72,0,0,0,1.09,0l1.34-1.33c5.13,5.72,9.8,10.91,10.43,11.5,1.49,1.42,1.78,1.46,2.63.61S348.48,464.93,348.48,464.93Z" transform="translate(-288 -406.43)"/></g></svg>